<svg xmlns="http://www.w3.org/2000/svg" viewBox="0 0 120 40">
  <g fill="#e8e1d6">
    <!-- Apple logo -->
    <path d="M24.6 11.5c1.9-2.3 3.2-5.4 2.8-8.5-2.7.1-6 1.8-7.9 4.1-1.8 2.1-3.4 5.3-3 8.4 3 .2 6.2-1.6 8.1-4z"/>
    <path d="M36.5 21.4c-.1-4.4 3.6-6.5 3.8-6.6-2.1-3.1-5.4-3.5-6.6-3.6-2.8-.3-5.4 1.7-6.8 1.7-1.4 0-3.6-1.7-5.9-1.6-3 .1-5.9 1.8-7.4 4.5-3.2 5.6-.8 13.9 2.3 18.4 1.5 2.2 3.3 4.6 5.7 4.5 2.3-.1 3.2-1.5 6-1.5 2.8 0 3.6 1.5 6 1.4 2.5-.1 4-2.2 5.5-4.4 1.7-2.5 2.4-4.9 2.4-5-.1 0-4.6-1.8-4.7-6.2z"/>
    <!-- Pay text -->
    <text x="60" y="27" font-family="Arial, Helvetica, sans-serif" font-size="20" font-weight="500">Pay</text>
  </g>
</svg>
